<?xml version="1.0" standalone="no"?>
<!DOCTYPE svg PUBLIC "-//W3C//DTD SVG 20010904//EN"
 "http://www.w3.org/TR/2001/REC-SVG-20010904/DTD/svg10.dtd">
<svg version="1.0" xmlns="http://www.w3.org/2000/svg"
 width="3850.000000pt" height="2868.000000pt" viewBox="0 0 3850.000000 2868.000000"
 preserveAspectRatio="xMidYMid meet">

<g transform="translate(0.000000,2868.000000) scale(0.100000,-0.100000)"
fill="#000000" stroke="none">
<path d="M5455 28603 c-132 -5 -280 -24 -400 -53 -66 -15 -151 -33 -189 -40
-38 -6 -114 -26 -170 -45 -56 -18 -117 -36 -136 -40 -19 -4 -60 -20 -91 -35
-30 -16 -82 -36 -115 -45 -32 -10 -71 -26 -87 -37 -15 -11 -55 -30 -89 -44
-34 -13 -68 -30 -77 -38 -9 -9 -42 -27 -74 -40 -31 -14 -83 -42 -114 -63 -32
-20 -85 -54 -118 -74 -143 -91 -246 -168 -375 -277 -105 -90 -357 -342 -412
-412 -28 -36 -58 -72 -67 -80 -25 -22 -98 -122 -163 -219 -31 -47 -71 -106
-88 -130 -17 -24 -39 -60 -48 -80 -9 -20 -29 -53 -44 -74 -15 -21 -32 -55 -39
-75 -6 -19 -25 -56 -40 -80 -16 -25 -34 -61 -40 -81 -6 -20 -24 -56 -39 -81
-16 -25 -36 -74 -45 -109 -9 -36 -27 -86 -40 -111 -13 -26 -31 -78 -40 -116
-8 -38 -29 -107 -45 -154 -16 -47 -41 -155 -55 -240 -14 -85 -33 -177 -43
-205 -16 -47 -17 -636 -20 -11120 -2 -7484 1 -11107 8 -11185 5 -63 19 -158
30 -210 12 -52 28 -141 36 -197 8 -57 25 -130 39 -162 13 -33 33 -99 44 -147
11 -49 31 -109 44 -134 14 -25 31 -67 38 -95 6 -27 26 -79 44 -115 18 -36 40
-89 49 -117 10 -29 22 -55 27 -59 5 -3 28 -40 50 -82 60 -115 118 -212 174
-292 28 -39 59 -86 70 -103 120 -197 464 -557 735 -771 87 -68 272 -193 345
-232 28 -14 57 -33 66 -40 9 -8 49 -31 90 -52 41 -21 88 -45 104 -54 87 -47
226 -107 270 -118 28 -6 64 -20 81 -30 16 -11 69 -28 117 -40 48 -11 109 -31
136 -44 29 -15 89 -31 152 -41 173 -26 214 -38 217 -63 l3 -22 14880 0 14879
0 0 20 c0 23 29 37 105 50 28 5 78 14 113 20 34 6 109 27 167 46 57 19 112 34
122 34 10 0 46 13 81 30 35 16 89 37 120 46 31 9 77 29 102 44 25 16 65 34 90
40 25 7 70 27 100 45 30 18 74 43 97 56 103 58 263 156 322 198 61 45 79 59
206 159 83 66 426 403 494 486 156 191 265 346 330 468 17 31 35 59 41 63 6 4
33 53 60 109 l50 102 -2 12295 -3 12294 -31 55 c-18 30 -35 66 -39 80 -4 14
-24 51 -44 82 -96 154 -224 342 -267 394 -237 292 -355 413 -587 601 -29 23
-66 54 -84 68 -17 14 -76 55 -130 91 -54 36 -105 72 -113 79 -22 20 -147 92
-209 121 -30 14 -67 36 -83 49 -15 13 -51 31 -80 40 -29 10 -75 30 -103 45
-27 15 -63 31 -80 35 -16 3 -66 22 -109 41 -43 19 -102 40 -130 46 -28 6 -82
23 -121 39 -38 15 -113 35 -165 44 -52 9 -138 27 -190 40 -52 13 -135 29 -185
36 -72 11 -2975 13 -14645 14 -8005 1 -14586 0 -14625 -2z m2411 -3601 c92
-50 140 -80 177 -109 23 -18 47 -33 53 -33 6 0 29 -13 51 -29 22 -16 59 -39
82 -51 23 -11 62 -36 86 -55 25 -18 55 -37 67 -41 13 -4 42 -21 65 -38 23 -17
65 -44 93 -61 29 -16 78 -46 110 -65 31 -19 72 -44 90 -55 18 -11 53 -35 79
-53 25 -18 64 -41 87 -52 37 -18 143 -84 204 -127 26 -19 75 -49 160 -98 28
-16 66 -40 83 -52 18 -12 54 -34 82 -49 27 -15 70 -42 94 -60 24 -19 49 -34
55 -34 6 0 40 -20 76 -43 117 -79 180 -117 189 -117 5 0 30 -16 55 -35 25 -19
67 -46 93 -60 26 -14 62 -36 80 -48 47 -32 119 -78 177 -112 107 -63 120 -71
165 -102 25 -18 71 -45 101 -61 30 -16 78 -44 106 -63 29 -19 76 -49 105 -67
30 -19 76 -48 104 -65 72 -46 124 -78 184 -112 30 -16 74 -45 98 -63 25 -18
57 -39 71 -45 15 -6 55 -30 89 -52 33 -22 91 -58 127 -80 37 -22 81 -50 99
-62 17 -12 50 -32 72 -44 22 -12 60 -36 85 -54 25 -18 61 -40 81 -48 20 -8 56
-30 82 -48 63 -46 158 -106 182 -115 11 -4 48 -26 81 -48 34 -23 87 -57 118
-76 32 -19 86 -54 122 -77 35 -24 68 -43 73 -43 8 0 75 -42 206 -130 22 -15
48 -30 59 -33 10 -4 43 -24 75 -46 52 -36 87 -57 195 -121 23 -14 57 -37 76
-51 19 -14 49 -33 65 -41 43 -22 144 -83 189 -115 22 -15 64 -41 92 -58 85
-49 146 -86 189 -115 22 -15 56 -35 75 -45 19 -10 51 -31 70 -46 19 -16 40
-29 46 -29 6 0 29 -13 51 -29 23 -16 63 -41 90 -55 27 -13 56 -32 64 -42 8 -9
36 -27 63 -40 28 -13 66 -35 85 -49 48 -35 134 -87 203 -124 31 -17 59 -35 63
-41 4 -6 29 -22 56 -36 27 -13 70 -40 95 -59 25 -19 50 -35 56 -35 10 0 138
-81 188 -118 14 -11 41 -27 60 -37 35 -17 107 -61 198 -121 26 -17 68 -42 92
-54 25 -13 58 -34 74 -47 17 -14 40 -29 52 -33 12 -5 51 -28 87 -52 127 -83
183 -118 193 -118 5 0 25 -13 44 -29 19 -15 58 -40 87 -54 28 -15 54 -31 58
-37 4 -6 32 -24 63 -41 31 -16 91 -52 132 -79 41 -27 100 -62 131 -79 30 -16
61 -37 69 -46 8 -9 43 -32 79 -51 36 -19 77 -42 91 -53 14 -10 47 -31 73 -47
211 -126 259 -156 297 -185 19 -14 45 -30 58 -33 12 -4 43 -23 68 -43 26 -19
65 -44 88 -54 22 -11 62 -34 88 -52 25 -18 76 -50 113 -72 36 -22 87 -54 113
-71 26 -17 68 -42 92 -54 25 -13 61 -36 80 -51 19 -16 39 -29 45 -29 9 0 49
-26 190 -120 22 -15 60 -38 85 -50 25 -13 56 -32 70 -42 31 -24 120 -79 185
-114 28 -14 71 -42 96 -60 26 -19 50 -34 55 -34 4 0 33 -16 63 -36 120 -77
221 -140 272 -172 30 -18 84 -52 122 -75 37 -23 97 -60 133 -82 36 -22 89 -56
117 -75 29 -18 72 -45 97 -57 25 -13 59 -34 77 -46 17 -12 68 -44 113 -72 44
-27 110 -68 145 -90 36 -22 90 -56 122 -75 31 -19 79 -50 107 -69 28 -19 76
-47 106 -63 53 -28 68 -37 168 -105 26 -17 70 -44 97 -59 28 -15 65 -39 82
-55 65 -56 148 -52 245 12 37 24 81 54 100 66 18 12 63 38 100 57 36 20 69 40
73 46 4 6 30 22 58 37 29 14 65 36 81 50 15 13 45 31 65 39 20 8 47 26 61 38
14 13 41 32 60 41 19 10 56 32 81 49 26 17 69 43 95 58 27 16 76 46 109 67 33
22 83 52 110 67 28 14 71 42 96 60 26 19 51 34 56 34 5 0 32 17 60 38 28 20
74 51 103 67 29 17 78 46 110 65 32 19 80 48 107 64 26 16 59 37 73 47 14 11
51 32 82 49 31 16 59 34 63 40 4 6 32 24 63 41 31 16 78 45 103 62 26 18 61
41 79 52 18 11 59 36 90 55 32 19 81 49 110 65 29 17 65 40 81 53 16 13 55 37
86 53 32 16 73 40 91 52 80 53 140 91 182 115 25 14 56 34 70 44 37 28 129 84
177 108 23 11 55 31 70 44 15 13 51 35 80 49 28 15 54 31 58 37 4 6 30 22 58
37 29 14 72 41 96 59 24 19 49 34 56 34 7 0 32 15 56 34 24 18 62 43 84 55 51
29 141 83 318 194 37 23 97 60 133 82 36 22 100 63 143 90 87 55 113 71 211
130 74 44 101 61 196 120 35 22 93 58 129 80 37 22 102 63 145 90 43 28 98 61
121 75 23 14 78 48 121 75 42 28 99 64 124 80 26 17 71 44 100 60 120 69 157
92 205 127 27 20 59 40 72 44 12 4 40 19 62 34 57 39 186 122 226 145 18 11
63 38 100 60 36 22 80 49 99 60 18 11 65 41 104 67 39 27 76 48 83 48 7 0 28
13 46 30 19 16 54 38 78 49 24 10 61 32 81 47 20 16 58 41 85 56 26 16 75 46
108 67 33 22 83 52 110 67 28 14 64 36 80 49 17 12 46 30 65 40 19 10 48 29
65 43 16 14 50 33 74 44 24 10 57 30 74 44 16 14 51 36 76 50 25 14 80 47 121
74 41 27 101 63 132 79 31 17 59 35 63 41 4 6 32 24 63 41 31 16 75 42 97 58
22 16 84 55 137 87 54 33 121 73 150 91 29 18 71 45 93 61 22 16 60 39 85 51
25 12 60 31 78 44 112 75 167 109 186 117 11 4 66 38 121 75 55 37 121 78 147
91 26 13 49 28 53 34 4 6 32 24 63 41 74 39 156 90 209 128 23 17 55 37 70 43
15 7 44 25 64 40 20 15 56 36 80 46 24 11 51 27 59 36 7 10 39 31 69 47 70 38
158 92 191 117 14 10 41 27 60 37 19 10 56 33 81 51 26 19 51 34 56 34 6 0 30
14 54 32 24 18 69 44 99 59 31 15 62 34 70 44 7 9 39 30 69 46 70 38 158 92
191 117 14 10 41 27 60 37 19 10 56 33 81 51 26 19 51 34 57 34 6 0 31 16 56
35 25 19 64 44 88 56 23 12 54 29 68 39 89 59 169 110 195 123 17 8 53 30 82
48 29 19 78 50 109 69 32 19 94 59 138 88 44 28 84 52 88 52 5 0 34 17 66 38
133 89 185 122 193 122 8 0 33 16 171 107 18 12 55 34 81 48 26 14 68 41 93
60 25 19 51 35 58 35 6 0 35 18 65 40 29 22 59 40 66 40 7 0 37 18 66 40 l54
40 1037 -2 c918 -3 1039 -5 1053 -18 14 -14 15 -1093 15 -10675 0 -5863 -3
-10670 -6 -10683 -15 -55 78 -52 -1758 -52 -1049 0 -1704 4 -1720 10 -14 5
-30 18 -35 29 -8 14 -11 2300 -11 7821 0 7785 0 7800 -20 7820 -33 33 -90 20
-135 -30 -11 -12 -40 -33 -65 -47 -41 -22 -81 -47 -204 -128 -25 -16 -75 -48
-111 -70 -37 -22 -95 -59 -131 -82 -35 -24 -66 -43 -69 -43 -3 0 -33 -19 -68
-42 -34 -24 -85 -56 -112 -73 -27 -16 -84 -54 -127 -82 -44 -29 -82 -53 -87
-53 -4 0 -28 -15 -52 -32 -24 -18 -63 -44 -86 -58 -134 -80 -181 -110 -191
-123 -7 -8 -31 -22 -54 -33 -24 -10 -61 -33 -82 -51 -22 -18 -43 -33 -48 -33
-5 0 -38 -19 -73 -42 -35 -24 -93 -61 -129 -83 -36 -22 -113 -71 -172 -110
-58 -38 -127 -81 -154 -95 -27 -14 -59 -35 -72 -46 -13 -12 -38 -29 -57 -39
-18 -9 -55 -32 -81 -51 -26 -19 -50 -34 -54 -34 -3 0 -35 -19 -70 -42 -117
-78 -181 -119 -307 -196 -30 -18 -75 -47 -101 -65 -25 -18 -76 -50 -112 -72
-80 -48 -162 -100 -276 -173 -47 -30 -101 -65 -120 -77 -19 -11 -66 -42 -105
-67 -38 -24 -90 -57 -115 -72 -25 -15 -59 -37 -77 -49 -18 -12 -62 -40 -98
-62 -36 -22 -86 -55 -111 -73 -25 -18 -64 -43 -88 -55 -24 -12 -60 -35 -82
-50 -38 -27 -105 -70 -239 -152 -35 -22 -112 -71 -171 -110 -58 -38 -127 -81
-154 -95 -27 -14 -59 -35 -72 -46 -13 -12 -37 -29 -55 -38 -18 -9 -58 -34 -89
-56 -32 -22 -63 -40 -69 -40 -7 0 -20 -9 -31 -21 -10 -12 -44 -34 -74 -50 -30
-16 -76 -44 -102 -62 -26 -17 -76 -50 -110 -71 -35 -22 -85 -54 -113 -71 -27
-18 -70 -44 -95 -59 -25 -15 -60 -37 -77 -49 -18 -12 -61 -40 -95 -61 -35 -21
-92 -58 -128 -81 -36 -23 -90 -57 -120 -76 -30 -19 -86 -56 -125 -81 -38 -25
-83 -53 -100 -62 -16 -9 -51 -31 -77 -49 -25 -17 -76 -50 -113 -72 -36 -22
-87 -55 -113 -74 -25 -19 -65 -42 -88 -52 -23 -10 -47 -26 -55 -35 -7 -8 -31
-25 -53 -36 -23 -11 -78 -46 -124 -77 -46 -31 -107 -70 -135 -87 -29 -17 -92
-57 -141 -90 -49 -32 -112 -72 -141 -89 -29 -16 -75 -44 -101 -62 -27 -17 -77
-49 -112 -70 -35 -21 -78 -50 -95 -64 -18 -15 -54 -38 -82 -53 -27 -14 -71
-41 -97 -59 -26 -17 -76 -50 -110 -71 -35 -22 -85 -54 -113 -71 -27 -18 -70
-44 -95 -59 -25 -15 -60 -37 -77 -49 -18 -12 -61 -40 -95 -61 -35 -21 -94 -59
-133 -84 -38 -25 -92 -59 -120 -76 -27 -18 -81 -52 -120 -77 -38 -25 -90 -58
-115 -73 -25 -15 -59 -37 -77 -49 -18 -12 -62 -40 -98 -62 -36 -22 -87 -55
-112 -74 -26 -18 -61 -39 -78 -47 -18 -7 -46 -24 -61 -37 -16 -13 -47 -33 -69
-45 -22 -11 -90 -53 -151 -94 -210 -138 -327 -213 -379 -243 -57 -32 -96 -58
-236 -150 -50 -33 -117 -76 -150 -95 -32 -19 -78 -48 -104 -65 -50 -33 -144
-92 -226 -143 -30 -19 -76 -48 -103 -65 -27 -18 -67 -43 -90 -57 -23 -14 -59
-38 -80 -54 -28 -22 -48 -29 -80 -29 -37 0 -61 11 -164 79 -67 43 -158 102
-202 129 -44 28 -95 60 -112 72 -18 12 -50 32 -71 43 -41 23 -156 97 -197 128
-14 11 -44 29 -66 40 -23 12 -54 32 -70 45 -16 13 -51 36 -79 51 -27 15 -65
37 -83 49 -17 12 -69 45 -115 74 -45 29 -93 61 -107 71 -14 11 -47 31 -75 45
-27 15 -68 39 -90 55 -46 33 -130 87 -195 126 -25 15 -60 37 -77 49 -18 12
-62 40 -99 62 -36 22 -85 54 -109 72 -24 18 -63 42 -87 54 -24 12 -56 33 -72
46 -17 14 -41 29 -55 35 -14 5 -70 39 -124 76 -55 37 -119 78 -143 92 -24 14
-64 39 -88 55 -25 17 -75 48 -111 70 -36 22 -86 55 -110 73 -25 18 -60 39 -79
47 -18 8 -48 26 -65 40 -17 15 -48 36 -70 48 -21 12 -60 36 -85 52 -26 17 -84
54 -129 82 -45 29 -95 62 -112 73 -44 31 -133 85 -186 114 -25 14 -59 36 -75
49 -16 13 -45 32 -64 42 -19 9 -51 29 -70 44 -19 14 -51 34 -70 45 -19 10 -44
26 -55 36 -11 10 -39 27 -63 39 -24 12 -63 36 -86 54 -24 18 -65 44 -92 59
-27 16 -74 45 -105 65 -73 49 -109 72 -187 119 -35 22 -83 53 -107 71 -25 18
-67 44 -94 57 -27 14 -52 30 -56 36 -4 6 -28 21 -54 35 -26 13 -89 52 -141 87
-51 35 -112 74 -136 88 -24 14 -64 39 -88 55 -25 17 -75 48 -111 70 -36 22
-88 57 -117 77 -28 21 -57 38 -64 38 -7 0 -34 17 -61 37 -26 20 -71 51 -99 67
-28 17 -65 40 -84 51 -18 11 -67 42 -109 69 -42 27 -100 65 -128 83 -29 18
-76 48 -105 67 -29 18 -73 45 -98 60 -25 15 -60 37 -77 49 -18 12 -62 40 -99
62 -36 22 -85 54 -109 72 -25 18 -66 44 -92 58 -26 14 -69 40 -95 58 -26 17
-77 50 -113 72 -37 22 -86 54 -110 71 -23 18 -53 37 -66 44 -36 19 -135 81
-184 117 -24 18 -67 44 -94 57 -27 14 -52 30 -56 36 -4 6 -28 21 -54 34 -26
14 -98 58 -159 98 -61 40 -132 87 -157 103 -25 17 -63 39 -85 50 -21 11 -56
33 -77 48 -100 72 -141 99 -179 117 -22 11 -58 33 -80 51 -21 17 -59 42 -84
55 -25 13 -56 32 -70 43 -14 10 -47 31 -73 47 -82 48 -145 88 -184 115 -54 36
-140 91 -193 123 -25 15 -59 37 -77 49 -18 12 -62 40 -98 62 -36 22 -87 55
-113 72 -26 18 -65 42 -87 54 -22 12 -60 37 -84 55 -24 19 -48 34 -53 34 -8 0
-85 49 -188 120 -25 17 -69 46 -99 63 -29 18 -76 46 -105 64 -28 18 -73 45
-99 60 -27 15 -70 45 -97 66 -26 20 -52 37 -57 37 -5 0 -66 37 -135 83 -174
113 -214 138 -271 169 -28 15 -60 36 -71 46 -35 30 -162 112 -174 112 -6 0
-30 15 -54 33 -24 18 -69 48 -100 66 -32 18 -60 37 -63 42 -4 5 -25 19 -48 31
-23 11 -60 36 -81 54 -43 37 -79 43 -108 17 -17 -16 -18 -272 -18 -7820 0
-5861 -3 -7810 -11 -7826 -7 -12 -17 -25 -23 -29 -19 -13 -3442 -10 -3469 3
-14 6 -30 22 -36 36 -17 37 -16 21333 2 21355 6 9 19 18 27 21 8 3 476 6 1040
6 958 1 1027 0 1056 -17z"/>
</g>
</svg>
