<?xml version="1.0" standalone="no"?>
<!DOCTYPE svg PUBLIC "-//W3C//DTD SVG 20010904//EN"
 "http://www.w3.org/TR/2001/REC-SVG-20010904/DTD/svg10.dtd">
<svg version="1.0" xmlns="http://www.w3.org/2000/svg"
 width="2336.000000pt" height="2336.000000pt" viewBox="0 0 2336.000000 2336.000000"
 preserveAspectRatio="xMidYMid meet">

<g transform="translate(0.000000,2336.000000) scale(0.100000,-0.100000)"
fill="#000000" stroke="none">
<path d="M11155 23350 c-1362 -69 -2589 -332 -3805 -817 -1278 -510 -2417
-1218 -3475 -2162 -177 -159 -595 -572 -775 -766 -1554 -1680 -2569 -3748
-2940 -5985 -156 -941 -198 -1911 -124 -2860 202 -2621 1272 -5067 3064 -7005
295 -319 709 -716 1045 -1000 2421 -2052 5546 -3016 8732 -2694 2341 236 4541
1171 6338 2694 336 284 750 681 1045 1000 2205 2384 3302 5523 3070 8780 -176
2463 -1127 4795 -2725 6680 -388 459 -872 946 -1320 1330 -992 852 -2078 1511
-3275 1988 -1159 462 -2320 721 -3625 807 -212 14 -1015 21 -1230 10z m1090
-1130 c2423 -132 4705 -1084 6510 -2714 167 -150 539 -521 704 -701 1658
-1808 2627 -4111 2761 -6560 13 -245 13 -885 0 -1130 -132 -2423 -1084 -4705
-2714 -6510 -150 -167 -521 -539 -701 -704 -1808 -1658 -4111 -2627 -6560
-2761 -245 -13 -885 -13 -1130 0 -2313 126 -4489 994 -6264 2498 -310 263
-779 721 -1042 1017 -1612 1817 -2538 4057 -2669 6460 -13 245 -13 885 0 1130
132 2423 1084 4705 2714 6510 150 167 521 539 701 704 1800 1651 4105 2624
6535 2760 216 12 938 12 1155 1z"/>
<path d="M16625 17223 c-146 -8 -329 -47 -496 -106 -52 -18 -2528 -989 -5504
-2156 -2976 -1168 -5513 -2163 -5638 -2212 -260 -102 -338 -139 -453 -214
-218 -145 -363 -334 -415 -545 -18 -71 -21 -103 -16 -205 7 -142 23 -209 82
-330 101 -209 290 -389 542 -514 71 -36 458 -170 1413 -491 723 -244 1317
-444 1318 -446 2 -1 69 -216 149 -476 841 -2756 866 -2834 955 -3013 91 -181
208 -315 330 -374 103 -50 254 -74 423 -68 216 7 295 40 450 186 164 154 1485
1356 1494 1359 4 1 584 -439 1287 -978 812 -622 1301 -991 1339 -1009 80 -38
231 -86 331 -105 312 -59 610 -1 855 165 180 122 376 366 443 549 15 43 1997
10020 2011 10125 9 64 -11 229 -37 314 -37 123 -95 219 -188 312 -92 93 -171
144 -288 183 -104 36 -260 55 -387 49z m2 -905 c-3 -13 -441 -2219 -973 -4903
l-967 -4880 -37 -50 c-23 -31 -57 -61 -90 -79 -48 -26 -58 -28 -129 -23 -42 3
-92 10 -111 16 -40 13 -2302 1744 -3633 2781 -300 234 -546 428 -546 432 -1 3
619 563 1376 1245 2007 1804 3402 3060 3532 3182 286 265 364 448 301 708 -27
114 -71 196 -144 268 -114 114 -278 169 -445 148 -116 -15 -259 -64 -373 -127
-51 -29 -1551 -978 -3333 -2111 -1782 -1132 -3254 -2066 -3271 -2076 l-30 -19
-1317 443 c-1095 369 -1326 450 -1373 482 -64 42 -64 43 16 85 71 37 11365
4462 11434 4480 99 26 120 26 113 -2z m-6385 -7912 c164 -125 300 -231 303
-236 5 -8 -873 -816 -879 -809 -2 2 32 310 75 684 43 374 78 682 79 683 0 2
28 -18 63 -45 34 -27 196 -151 359 -277z"/>
</g>
</svg>
