<?xml version="1.0" standalone="no"?>
<!DOCTYPE svg PUBLIC "-//W3C//DTD SVG 20010904//EN"
 "http://www.w3.org/TR/2001/REC-SVG-20010904/DTD/svg10.dtd">
<svg version="1.0" xmlns="http://www.w3.org/2000/svg"
 width="600.000000pt" height="600.000000pt" viewBox="0 0 600.000000 600.000000"
 preserveAspectRatio="xMidYMid meet">

<g transform="translate(0.000000,600.000000) scale(0.100000,-0.100000)"
fill="#000000" stroke="none">
<path d="M2825 5454 c-16 -2 -73 -9 -125 -15 -283 -32 -601 -132 -860 -271
-481 -257 -887 -697 -1099 -1190 -118 -275 -179 -526 -202 -833 -31 -419 63
-877 260 -1268 122 -242 273 -447 472 -644 136 -134 214 -198 372 -303 335
-224 717 -358 1132 -401 146 -14 448 -7 590 16 815 127 1496 627 1856 1360
122 250 198 502 235 785 23 177 15 535 -16 709 -103 583 -390 1087 -835 1469
-355 305 -782 497 -1260 568 -96 14 -458 27 -520 18z m485 -330 c899 -128
1632 -821 1809 -1712 46 -230 52 -543 16 -762 -124 -752 -628 -1382 -1330
-1663 -819 -328 -1751 -125 -2362 516 -297 312 -481 674 -564 1112 -31 159
-37 465 -14 645 151 1193 1253 2033 2445 1864z"/>
<path d="M1996 4364 c-74 -23 -111 -52 -232 -175 -93 -95 -115 -124 -134 -174
-22 -58 -22 -64 -11 -221 24 -342 102 -628 252 -925 373 -736 1137 -1230 1959
-1266 210 -9 223 -4 386 160 112 113 134 140 153 190 59 159 -10 348 -162 444
-21 13 -132 50 -255 84 -192 53 -225 60 -288 56 -103 -6 -168 -39 -269 -138
l-83 -80 -78 26 c-43 14 -127 51 -187 82 -304 156 -539 415 -666 735 -53 135
-55 126 42 228 153 161 163 231 73 550 -31 113 -68 223 -81 245 -37 65 -123
139 -190 165 -75 29 -165 35 -229 14z"/>
</g>
</svg>
